# xmcd
# 
# Track frame offsets:
#     150
#     11716
#     22757
#     36426
#     50351
#     62217
#     74030
#     86043
#     97155
#     107510
#     120343
#     133619
#     146612
#     158428
#     171318
#     187722
#     197128
#     208614
#     223038
#     239914
#     254459
#     265488
# 
# Disc length: 3672
# 
# Revision: 1
# Processed by: cddbd v1.5.2PL0 Copyright (c) Steve Scherf et al.
# Submitted via: fre:ac v1.0.17
# 
DISCID=490e5616
DTITLE=Jerry Lee Lewis - Touching Home - Would You Take Another Chance On Me?
DYEAR=2013
DGENRE=Country
TTITLE0=When He Walks On You (Like You Have Walked On Me)
TTITLE1=Time Changes Everything
TTITLE2=Help Me Make It Through The Night
TTITLE3=Mother, The Queen Of My Heart
TTITLE4=Hearts Were Made For Beating
TTITLE5=Foolish Kind Of Man
TTITLE6=Touching Home
TTITLE7=Please Don't Talk About Me When I'm Gone
TTITLE8=You Helped Me Up (When The World Let Me Down)
TTITLE9=When Baby Gets The Blues
TTITLE10=Comin' Back For More
TTITLE11=Would You Take Another Chance On Me
TTITLE12=Another Hand Shakin' Goodbye
TTITLE13=Swinging Doors
TTITLE14=Thirteen At The Table
TTITLE15=Big Blon' Baby
TTITLE16=Lonesome Fiddle Man
TTITLE17=Me And Bobby McGee
TTITLE18=For The Good Times
TTITLE19=Things That Matter Most To Me
TTITLE20=The Hurtin' Part
TTITLE21=The Goodbye Of The Year
EXTD=
EXTT0=
EXTT1=
EXTT2=
EXTT3=
EXTT4=
EXTT5=
EXTT6=
EXTT7=
EXTT8=
EXTT9=
EXTT10=
EXTT11=
EXTT12=
EXTT13=
EXTT14=
EXTT15=
EXTT16=
EXTT17=
EXTT18=
EXTT19=
EXTT20=
EXTT21=
PLAYORDER=
